PathFileType	4	(X/Y/Z)	56_2_8_p0_0-157_filt_butterworth.trc
DataRate	CameraRate	NumFrames	NumMarkers	Units	OrigDataRate	OrigDataStartFrame	OrigNumFrames
60.0	60.0	6	27	m	60.0	58	157
Frame#	Time	RHip			RKnee			RAnkle			RBigToe			RSmallToe			RHeel			LHip			LKnee			LAnkle			LBigToe			LSmallToe			LHeel			Neck			Head			Nose			RShoulder			RElbow			RWrist			RThumb			RIndex			RPinky			LShoulder			LElbow			LWrist			LThumb			LIndex			LPinky			
		X1	Y1	Z1	X2	Y2	Z2	X3	Y3	Z3	X4	Y4	Z4	X5	Y5	Z5	X6	Y6	Z6	X7	Y7	Z7	X8	Y8	Z8	X9	Y9	Z9	X10	Y10	Z10	X11	Y11	Z11	X12	Y12	Z12	X13	Y13	Z13	X14	Y14	Z14	X15	Y15	Z15	X16	Y16	Z16	X17	Y17	Z17	X18	Y18	Z18	X19	Y19	Z19	X20	Y20	Z20	X21	Y21	Z21	X22	Y22	Z22	X23	Y23	Z23	X24	Y24	Z24	X25	Y25	Z25	X26	Y26	Z26	X27	Y27	Z27	
58	0.9666666666666668	0.4495366516210874	0.655330600900037	0.2753820633200093	0.4481502239249844	0.8214466579004336	0.6701027881558952	0.4834230973546653	1.0861178503648876	1.0827358116343844	0.39063544920890053	0.84184666671253	1.125053583633869	0.4618381710234344	0.8963509370264727	1.1491949465471334	0.49945217578451323	1.15318419747934	1.1115909869101723	0.2462143727310636	0.7484477058445347	0.24478483768273995	0.29776633057759283	0.9401713343327713	0.6580314590911159	0.3273239028200486	1.1067431132386705	1.0367639995679552	0.24161693532134015	0.8918992756704783	1.1173767147179527	0.2250437175649377	0.9988115083498958	1.1267517732804384	0.35675252394994955	1.1879964475928408	1.0949583754773893	0.33725155280806	0.4836778229800574	-0.2386267014957077	0.3002695987247632	0.34713242452430393	-0.45344965135779414	0.2792144350991078	0.3619042181802754	-0.3165430268038121	0.4783808856274082	0.4729292175613259	-0.1348855154485541	0.556386678244785	0.5725011981146997	0.11873648086821131	0.5620131067879862	0.5928878804713179	0.38167976346837906	0.500747924817805	0.6518267398793328	0.494651096578225	0.518061513084183	0.6304511839113264	0.5060656712625123	0.5715044040286588	0.6538688778442787	0.5065777616383808	0.18235821981531214	0.5818792476637278	-0.164350519977267	0.14660559316947186	0.7226236650125485	0.0591738838697228	0.11044822157589841	0.7954469328541811	0.3025631523358807	0.1473717834292468	0.8489613825341772	0.4035611282967168	0.11278782256318809	0.8142722759746358	0.43005837966322036	0.09108007807087028	0.8273259765756539	0.41760027904793046
59	0.9833333333333332	0.4495523105309104	0.6549599189408317	0.27420453049308	0.4507246539006457	0.8253598424900199	0.6711791527986708	0.4832381861011208	1.0858586029727606	1.082650560035582	0.39017747617594783	0.8414285385600984	1.1249271529293252	0.46189198007826227	0.8964858393005244	1.1492204935696921	0.49931400632015266	1.1529621593358719	1.1115812088512709	0.2463041918282303	0.7487496353560099	0.24472987121784853	0.2977700509801758	0.9402431808826481	0.6580123987911288	0.32729072320752733	1.1066833165677994	1.0368088424901036	0.2432611062991285	0.894169100630123	1.1187756672629598	0.22498143736875645	0.9992307990359703	1.1282314051654394	0.35674744694753363	1.1882034691981684	1.0950443759366957	0.3373240680289915	0.4842402102419898	-0.23762851873177146	0.30399326744676974	0.350324938410097	-0.4544014044402801	0.2796990207108004	0.36212744499275523	-0.3167633830407832	0.4779695283632326	0.47302370824222895	-0.13443867841293097	0.5568059046467781	0.5764809617687108	0.11811511044481188	0.5593264685016064	0.5892626947167444	0.3823717026642894	0.4973182746052271	0.6547172654009585	0.4946307912601485	0.5120346725355538	0.6373509303248576	0.5062854679451751	0.5669906869642536	0.6513974197643905	0.5067662401159627	0.18235490848581926	0.5819092809527006	-0.16438489233189135	0.1464935079508874	0.7233654825345939	0.06005400761828752	0.11344747277466252	0.7990457891091275	0.30284749285834983	0.15170912214427984	0.8528076455773652	0.40543870815933136	0.12100496321399777	0.8251705940776599	0.4308844983730161	0.09260501892073648	0.8159645014910859	0.4190187026806615
60	1.0	0.4493289572368822	0.6544348975192038	0.2731146805127226	0.45390197208650335	0.8300441407312142	0.6726142787476859	0.4831920649664787	1.0858127268640612	1.0826312545873737	0.388897240683999	0.8409925242930462	1.1246019237977318	0.4619884007232609	0.8967272779257752	1.149249122584765	0.4992365334287524	1.152856299524999	1.111553411378153	0.2464195526650757	0.749342366679542	0.24473365586894508	0.29777082831445423	0.940320879208189	0.6580053335099668	0.3272703579841005	1.106648632476722	1.0368171939679216	0.2454949288392449	0.896606750157157	1.1198679302632033	0.22483944305383344	0.9993953083613388	1.1304640723316135	0.35665080031798374	1.1881264652648436	1.0943983460574704	0.33744010793214413	0.4883485443604611	-0.2374707372592318	0.30745959909005194	0.35354499131365535	-0.45534518992451833	0.2811241957576083	0.3625234576656416	-0.3169058543140527	0.4779831432620137	0.4731401428519571	-0.13348909165551354	0.5574371739693862	0.581979496433478	0.1180329278154309	0.5558410266073986	0.584704448989122	0.38249730490084216	0.49505574091909316	0.6575503115710777	0.4945898397649641	0.5050321921475551	0.6426332156424643	0.5071266942119577	0.5626746028436608	0.6526219676014274	0.5066040076855918	0.1822731958029955	0.581729375230432	-0.16476867087152783	0.1464286842484105	0.7237674962527264	0.06040826759366857	0.1156055480639673	0.8020751725170606	0.30310599742272687	0.15427335318942745	0.8520208689341915	0.40764166659505086	0.12632043308321173	0.8316153494238919	0.43139853401174316	0.09369376013082528	0.8080760783469101	0.41995884006990014
61	1.0166666666666666	0.44915110219488824	0.6539131216053178	0.2726626568956378	0.45634720154813185	0.8335039795597874	0.6743286706240855	0.483237659819198	1.0859057905586502	1.0826568464946817	0.3871772151463452	0.8404296569290188	1.1240587156811537	0.4620560566740865	0.8969328774473945	1.1492711630232857	0.4992210826461556	1.1528429685202646	1.1115306505137692	0.24643997540566248	0.7498612273784122	0.24474477440943154	0.2977699480727661	0.9403609648272775	0.6580155700153073	0.32726781868856664	1.1066454672646293	1.036814052035116	0.2472471778181734	0.8987147371802693	1.1203189858293476	0.22470641334220207	0.9990975535045034	1.1316689940969435	0.35639316195873394	1.1860166525705005	1.0928708751233567	0.33753782964985707	0.4935771834035625	-0.2382327696837551	0.31069866894443626	0.3573104182073103	-0.4564874636742965	0.28351124004627193	0.36261768642259723	-0.3164740750816213	0.47809949909066213	0.473255618797345	-0.13232758452892202	0.557927343568634	0.5861495992777124	0.11834049387108583	0.551889454835922	0.5802905368593252	0.38258783894316695	0.4927874127127642	0.657691569886427	0.4944470733717893	0.4998360368393098	0.6455327640833981	0.5090426295771109	0.5579790759357384	0.6535466998033443	0.5058999343224665	0.18208354161776036	0.5812106115847412	-0.16568727802899935	0.14641340905289646	0.7238615346047659	0.060418768911509775	0.11794608950694777	0.8037427463676556	0.3032219967082369	0.15519221275735434	0.8489588607140859	0.40986981271512857	0.12808796192215244	0.8318470945275825	0.43171593029831623	0.09512724303820694	0.8042443181673649	0.4202360483172043
62	1.0333333333333334	0.44910448416179266	0.6534918391364912	0.27265784840669915	0.4575599633193032	0.835103220551596	0.6757221873553234	0.4833048341526602	1.0860458859060105	1.0827008393519735	0.38585932601447337	0.839949857815624	1.1235054352950542	0.46205408329107184	0.8969910798847072	1.1492869715234206	0.49927246588827723	1.1528719140583472	1.1115519526921176	0.24631357382628438	0.7498372011958823	0.24472926492723795	0.29777025810905344	0.940374922766994	0.6580386801621017	0.3272784676974652	1.1066601107006258	1.0368177200821649	0.24801211709817161	0.8997364222390911	1.1203367846558216	0.22464005587835745	0.9986136637352323	1.1312528668998405	0.3560253158163951	1.1805667369126742	1.091077800311616	0.33758603113993163	0.49719865671941504	-0.2400857241238497	0.3140679648225284	0.36173259244684086	-0.4579120247779861	0.2858289340449385	0.3613264474978367	-0.315660976465337	0.47817738280806815	0.47335501913228734	-0.13149581481486372	0.5580894973646504	0.5875867120926656	0.11859103579830216	0.5481166385373837	0.5778254684628292	0.38318235185834615	0.48978640951778574	0.6546193160636744	0.4941248229512197	0.49720149189658897	0.6461666769503118	0.5112232649971413	0.5526411045310836	0.6524651523774797	0.5044763128115739	0.18184776574228817	0.5805247736535484	-0.16688128983379694	0.14642288901400277	0.723838066495789	0.06033166626404434	0.12066287815963658	0.8039359163972623	0.3031769167147349	0.15537939832563735	0.8454061261730432	0.4117062831779925	0.1278606295934189	0.8290056202813718	0.43199140451980567	0.09684452176400346	0.8022771020840583	0.4198064970282406
63	1.05	0.4492304458458606	0.6536092223865191	0.2727276132340661	0.4579393435644058	0.8355436853995619	0.6763845110918599	0.4833369182552819	1.0861451215565827	1.0827463990474744	0.38531774841851096	0.8397739191967982	1.1233201027077018	0.46199550959645785	0.8969328592680442	1.1493055028791355	0.49935713225590694	1.1529094879096398	1.1116328923252548	0.24612813380147358	0.7492405782511349	0.24465983446533135	0.29776984166211123	0.9403883151742496	0.6580589052055985	0.3272915897901575	1.106676042241864	1.0368353969936044	0.24812456116303797	0.8998606596724641	1.1202389955795031	0.22458782042447484	0.9982930553994149	1.13027561746044	0.3557029441372163	1.1732626144151743	1.0898995825062232	0.33763441063469196	0.49848468714390654	-0.24246369182003735	0.3179548644079341	0.366598704820863	-0.4594951717182687	0.2871059953490977	0.3579402128047975	-0.31511395939846837	0.4782185138681757	0.47350083519830555	-0.1311061356886653	0.5580206144335059	0.5872020556146463	0.11860762440217502	0.54477907725794	0.5778345022297489	0.3842296397599034	0.4864581724204926	0.650099702773159	0.49368058284532473	0.49564126900477795	0.6455741714452955	0.5121426236528552	0.5469924614588414	0.6506618466293997	0.5027169105744114	0.18167571437327154	0.5800265839446744	-0.16778243463434642	0.14643530608983765	0.7237794828645143	0.06025066821106567	0.122715320728808	0.8020695021041071	0.30304977244533593	0.15549197652204874	0.8409030346561895	0.41276219746124665	0.1272640068713306	0.8267842853560572	0.4322209446048092	0.09812310854815795	0.8005745152807274	0.418705414121047
